<?xml version="1.0" encoding="UTF-8" standalone="no"?>
<svg
   xmlns:dc="http://purl.org/dc/elements/1.1/"
   xmlns:cc="http://creativecommons.org/ns#"
   xmlns:rdf="http://www.w3.org/1999/02/22-rdf-syntax-ns#"
   xmlns:svg="http://www.w3.org/2000/svg"
   xmlns="http://www.w3.org/2000/svg"
   xmlns:sodipodi="http://sodipodi.sourceforge.net/DTD/sodipodi-0.dtd"
   xmlns:inkscape="http://www.inkscape.org/namespaces/inkscape"
   width="16"
   height="16"
   id="svg2"
   version="1.1"
   inkscape:version="0.48.4 r9939"
   sodipodi:docname="gr_black.svg">
  <metadata
     id="metadata354">
    <rdf:RDF>
      <cc:Work
         rdf:about="">
        <dc:format>image/svg+xml</dc:format>
        <dc:type
           rdf:resource="http://purl.org/dc/dcmitype/StillImage" />
        <dc:title></dc:title>
      </cc:Work>
    </rdf:RDF>
  </metadata>
  <defs
     id="defs352" />
  <sodipodi:namedview
     pagecolor="#ffffff"
     bordercolor="#666666"
     borderopacity="1"
     objecttolerance="10"
     gridtolerance="10"
     guidetolerance="10"
     inkscape:pageopacity="0"
     inkscape:pageshadow="2"
     inkscape:window-width="1215"
     inkscape:window-height="776"
     id="namedview350"
     showgrid="false"
     inkscape:zoom="14.75"
     inkscape:cx="33.189801"
     inkscape:cy="12.380835"
     inkscape:window-x="65"
     inkscape:window-y="24"
     inkscape:window-maximized="1"
     inkscape:current-layer="svg2" />
  <path
     style="fill:#000000;stroke:none"
     d="m 0,0.24327 0,5.30997 2.4675776,0 0.7184086,0 c 0.1050751,0 0.2410105,0.0216 0.3403383,-0.0188 C 3.6334611,5.49084 3.6891534,5.36099 3.7530606,5.27216 3.8861223,5.08728 4.0292418,4.90589 4.1867295,4.74116 4.4015649,4.51648 4.6261457,4.30271 4.8726849,4.11293 4.992378,4.02083 5.2008414,3.92948 5.2778673,3.79754 c 0.050507,-0.0865 0.03211,-0.2099 0.03211,-0.30579 l 0,-0.68717 0,-2.56128 -5.3099771,0 z"
     id="path4"
     inkscape:connector-curvature="0" />
  <path
     style="fill:#ffffff;stroke:none"
     d="m 5.3099771,0.24327 0,2.53004 0,0.68718 c 0,0.098 0.017179,0.21983 -0.03211,0.3091 C 5.2021841,3.90665 4.9950328,3.99639 4.8726847,4.08925 4.6260206,4.27651 4.4006277,4.48619 4.1867293,4.70989 4.020652,4.88359 3.8688179,5.07556 3.7306648,5.27213 3.6649458,5.36563 3.610097,5.49021 3.4969945,5.53441 3.3958238,5.57391 3.2613253,5.55321 3.1547509,5.55321 l -0.7184087,0 -2.4363424,0 0,3.21722 1.0619954,0 0,1.062 -1.0619954,0 0,1.09323 2.3114018,0 0.6247032,0 c 0.087371,3e-5 0.1958132,-0.0143 0.2744633,0.0321 0.1045441,0.0617 0.14996,0.21106 0.2074015,0.31148 0.1402771,0.24516 0.3345598,0.46453 0.45519,0.71841 l -2.8111644,0 0,3.18598 3.1859863,0 0,-2.77993 c 0.1963442,0.19622 0.4025587,0.3935 0.6275143,0.55711 0.1268148,0.0923 0.3235338,0.18213 0.4023713,0.32291 0.045229,0.0807 0.032079,0.18676 0.03211,0.27568 l 0,0.56224 0,2.12399 2.1239908,0 0,-1.062 2.1239908,0 0,-1.06199 1.0619953,0 0,1.06199 2.123991,0 0,1.062 2.342637,0 c -0.465748,-0.2636 -0.808741,-0.65257 -1.186936,-1.03076 L 12.337888,13.64311 11.619479,12.9247 c -0.08483,-0.0848 -0.191877,-0.23761 -0.312351,-0.27078 -0.14262,-0.0393 -0.380101,0.18894 -0.499763,0.25744 -0.405651,0.23217 -0.8578111,0.41977 -1.3118766,0.53262 -1.5441101,0.38376 -3.24652,-0.008 -4.4654096,-1.03354 C 3.1343858,10.81495 2.6613793,8.01731 3.942002,5.89679 4.1955066,5.47702 4.5347204,5.08477 4.90392,4.76352 5.2180208,4.49021 5.5302162,4.23602 5.9034451,4.04629 6.3574169,3.81553 6.83494,3.62378 7.3402624,3.54556 7.8110388,3.47276 8.2988382,3.41066 8.7770798,3.46936 9.7776981,3.59227 10.74908,3.97793 11.524556,4.63062 c 1.25253,1.05416 1.965972,2.7213 1.807547,4.35843 -0.06088,0.62904 -0.251443,1.24806 -0.533403,1.81164 -0.08608,0.17207 -0.178634,0.33893 -0.284458,0.49976 -0.04651,0.0707 -0.128877,0.15786 -0.103545,0.24988 0.03017,0.10961 0.162548,0.20409 0.239543,0.28112 l 0.530997,0.531 1.99905,1.99905 c 0.267342,0.26734 0.709913,0.57632 0.780879,0.96829 0.05526,-0.13166 0.03124,-0.29564 0.03124,-0.43729 l 0,-0.81212 c -0.09939,0 -0.217553,0.0161 -0.312352,-0.0188 -0.170919,-0.063 -0.311696,-0.26163 -0.437292,-0.38723 -0.100328,-0.10032 -0.24301,-0.20662 -0.293517,-0.34358 -0.03495,-0.0948 -0.01884,-0.21296 -0.01884,-0.31235 -0.09939,0 -0.217553,0.0161 -0.312351,-0.0188 -0.170919,-0.063 -0.311696,-0.26162 -0.437293,-0.38722 -0.100327,-0.10033 -0.243009,-0.20662 -0.293516,-0.34359 -0.03495,-0.0948 -0.01883,-0.21296 -0.01883,-0.31235 l 2.123991,0 0,-1.062 -1.061996,0 0,-1.06199 -1.061995,0 0,-1.062 1.061995,0 0,-1.06199 1.061996,0 0,-2.15523 -2.123991,0 -0.562233,0 c -0.08893,-3e-5 -0.19497,0.0131 -0.275682,-0.0321 C 12.889692,5.44225 12.798548,5.24453 12.703968,5.11878 12.536922,4.89661 12.346544,4.68786 12.150481,4.49127 l 2.779929,0 0,-3.18599 -3.185986,0 0,2.8424 C 11.523872,3.9777 11.294919,3.82571 11.05725,3.68109 10.950208,3.61589 10.780975,3.56649 10.714538,3.45385 10.668128,3.37525 10.682458,3.26676 10.682428,3.17939 l 0,-0.6247 0,-2.3114 -5.3724469,0 z"
     id="path6"
     inkscape:connector-curvature="0" />
  <path
     style="fill:#000000;stroke:none"
     d="m 10.682424,0.24327 0,2.34263 0,0.62471 c 3.2e-5,0.0844 -0.01565,0.19406 0.03211,0.26893 0.06238,0.0978 0.215773,0.14328 0.311477,0.20153 0.243728,0.1483 0.46984,0.32806 0.718409,0.46659 l 0,-2.8424 3.185986,0 0,3.18599 -2.779929,0 c 0.157331,0.22339 0.367919,0.40758 0.531779,0.62751 0.09289,0.12469 0.183694,0.32219 0.320941,0.40237 0.07859,0.0459 0.184537,0.0321 0.271746,0.0321 l 0.562233,0 2.155226,0 0,-5.30997 -5.309978,0 m -3.2484561,0.0312 0,2.12399 -1.0619954,0 0,0.87459 C 6.7206193,3.18264 7.0709841,3.03878 7.4339679,3.02315 l 0,-0.6247 1.0619954,0 c 0,0.1302 -0.052225,0.40562 0.03211,0.51215 0.051913,0.0656 0.1744796,0.0534 0.2490067,0.0633 0.2583772,0.0345 0.5216271,0.091 0.7808789,0.11168 l 0,-0.68717 -1.0619954,0 0,-1.06199 1.0619954,0 0,-1.062 -2.1239908,0 z"
     id="path8"
     inkscape:connector-curvature="0" />
  <path
     style="fill:#ffffff;stroke:none"
     d="m 1.0619954,1.30526 0,3.18599 3.1859863,0 0,-3.18599 -3.1859863,0 z"
     id="path10"
     inkscape:connector-curvature="0" />
  <path
     style="fill:#000000;stroke:none"
     d="m 1.8741096,2.11737 0,1.56176 1.5929931,0 0,-1.56176 -1.5929931,0 m 10.6824244,0 0,1.56176 1.592993,0 0,-1.56176 -1.592993,0 z"
     id="path12"
     inkscape:connector-curvature="0" />
  <path
     style="fill:#393939;stroke:none"
     d="m 9.1206665,2.99196 0.031235,0.0312 -0.031235,-0.0312 z"
     id="path14"
     inkscape:connector-curvature="0" />
  <path
     style="fill:#858585;stroke:none"
     d="m 6.4032077,3.24184 0.031235,0.0312 -0.031235,-0.0312 z"
     id="path16"
     inkscape:connector-curvature="0" />
  <path
     style="fill:#000000;stroke:none"
     d="M 7.7150843,3.47386 C 6.2261043,3.68707 4.8879588,4.43871 4.040424,5.70942 2.4556083,8.08551 3.2345569,11.57263 5.7785045,12.94589 6.9058126,13.55441 8.2119733,13.74357 9.4642533,13.45924 9.939996,13.35122 10.415957,13.15329 10.8386,12.9114 c 0.12391,-0.0709 0.35252,-0.29439 0.499763,-0.21714 0.107386,0.0563 0.196375,0.17697 0.281116,0.26172 l 0.593468,0.59346 1.87411,1.87411 c 0.386691,0.38669 0.78444,0.93918 1.405582,0.79559 0.695951,-0.16089 0.558891,-0.99862 0.186193,-1.38906 -0.761638,-0.7979 -1.561415,-1.56263 -2.341419,-2.34263 L 12.71271,11.86274 c -0.0859,-0.0859 -0.238574,-0.19237 -0.2759,-0.31235 -0.02846,-0.0914 0.05238,-0.17879 0.09805,-0.24988 0.109979,-0.17126 0.204184,-0.34908 0.295078,-0.531 0.272808,-0.54605 0.479335,-1.19768 0.50626,-1.81164 C 13.381738,7.91937 13.205541,6.90248 12.685257,5.99053 11.72134,4.30102 9.6736255,3.19342 7.7150873,3.47386 z"
     id="path18"
     inkscape:connector-curvature="0" />
  <path
     style="fill:#c6c6c6;stroke:none"
     d="m 10.557484,3.99148 0.03123,0.0312 -0.03123,-0.0312 z"
     id="path20"
     inkscape:connector-curvature="0" />
  <path
     style="fill:#ffffff;stroke:none"
     d="M 8.3710227,4.29115 C 7.6269075,4.31805 6.9450752,4.43346 6.278267,4.78764 5.7960586,5.0438 5.3605156,5.37995 5.0121186,5.80312 c -1.3470787,1.6362 -1.2592454,4.1237 0.2053712,5.65357 0.9219057,0.96295 2.164534,1.33689 3.4658845,1.27942 0.4855818,-0.0215 0.9699142,-0.19419 1.4055817,-0.39522 0.549552,-0.2536 1.032416,-0.61074 1.427447,-1.07161 C 13.010318,9.52632 12.788986,6.72184 10.994776,5.27213 10.623702,4.9723 10.225985,4.72704 9.7766049,4.56324 9.3345961,4.40213 8.8468591,4.27398 8.3710227,4.29115 z"
     id="path22"
     inkscape:connector-curvature="0" />
  <path
     style="fill:#303030;stroke:none"
     d="m 9.2768423,4.39754 0.031235,0.0312 -0.031235,-0.0312 z"
     id="path24"
     inkscape:connector-curvature="0" />
  <path
     style="fill:#9b9b9b;stroke:none"
     d="m 6.9029702,4.49125 0.031235,0.0312 -0.031235,-0.0312 z"
     id="path26"
     inkscape:connector-curvature="0" />
  <path
     style="fill:#585858;stroke:none"
     d="m 9.6828994,4.52248 0.031235,0.0312 -0.031235,-0.0312 z"
     id="path28"
     inkscape:connector-curvature="0" />
  <path
     style="fill:#424242;stroke:none"
     d="m 9.7766049,4.55372 0.031235,0.0312 -0.031235,-0.0312 z"
     id="path30"
     inkscape:connector-curvature="0" />
  <path
     style="fill:#797979;stroke:none"
     d="m 10.057721,4.67866 0.03123,0.0312 -0.03123,-0.0312 z"
     id="path32"
     inkscape:connector-curvature="0" />
  <path
     style="fill:#868686;stroke:none"
     d="m 10.120192,4.70989 0.03124,0.0312 -0.03124,-0.0312 z"
     id="path34"
     inkscape:connector-curvature="0" />
  <path
     style="fill:#a7a7a7;stroke:none"
     d="m 12.400358,4.77236 0.03123,0.0312 -0.03123,-0.0312 z"
     id="path36"
     inkscape:connector-curvature="0" />
  <path
     style="fill:#3a3a3a;stroke:none"
     d="m 10.432543,4.86607 0.03123,0.0312 -0.03123,-0.0312 z"
     id="path38"
     inkscape:connector-curvature="0" />
  <path
     style="fill:#939393;stroke:none"
     d="m 10.463778,4.8973 0.03124,0.0312 -0.03124,-0.0312 z"
     id="path40"
     inkscape:connector-curvature="0" />
  <path
     style="fill:#626262;stroke:none"
     d="m 10.526249,4.92854 0.03124,0.0312 -0.03124,-0.0312 z"
     id="path42"
     inkscape:connector-curvature="0" />
  <path
     style="fill:#717171;stroke:none"
     d="m 10.619954,4.99101 0.03124,0.0312 -0.03124,-0.0312 z"
     id="path44"
     inkscape:connector-curvature="0" />
  <path
     style="fill:#464646;stroke:none"
     d="m 10.807365,5.11595 0.03123,0.0312 -0.03123,-0.0312 z"
     id="path46"
     inkscape:connector-curvature="0" />
  <path
     style="fill:#7a7a7a;stroke:none"
     d="m 10.8386,5.14719 0.03124,0.0312 -0.03124,-0.0312 z"
     id="path48"
     inkscape:connector-curvature="0" />
  <path
     style="fill:#a9a9a9;stroke:none"
     d="m 10.869835,5.17842 0.03124,0.0312 -0.03124,-0.0312 z"
     id="path50"
     inkscape:connector-curvature="0" />
  <path
     style="fill:#393939;stroke:none"
     d="m 5.5910935,5.20966 0.031235,0.0312 -0.031235,-0.0312 z"
     id="path52"
     inkscape:connector-curvature="0" />
  <path
     style="fill:#363636;stroke:none"
     d="m 10.932306,5.20966 0.03123,0.0312 -0.03123,-0.0312 z"
     id="path54"
     inkscape:connector-curvature="0" />
  <path
     style="fill:#5c5c5c;stroke:none"
     d="m 10.963541,5.24089 0.03124,0.0312 -0.03124,-0.0312 z"
     id="path56"
     inkscape:connector-curvature="0" />
  <path
     style="fill:#7f7f7f;stroke:none"
     d="m 10.994776,5.27213 0.03124,0.0312 -0.03124,-0.0312 z"
     id="path58"
     inkscape:connector-curvature="0" />
  <path
     style="fill:#9d9d9d;stroke:none"
     d="m 11.026011,5.30336 0.03123,0.0312 -0.03123,-0.0312 z"
     id="path60"
     inkscape:connector-curvature="0" />
  <path
     style="fill:#363636;stroke:none"
     d="m 11.150952,5.39707 0.03124,0.0312 -0.03124,-0.0312 z"
     id="path62"
     inkscape:connector-curvature="0" />
  <path
     style="fill:#444444;stroke:none"
     d="m 11.182187,5.4283 0.03123,0.0312 -0.03123,-0.0312 z"
     id="path64"
     inkscape:connector-curvature="0" />
  <path
     style="fill:#4e4e4e;stroke:none"
     d="m 11.213422,5.45954 0.03124,0.0312 -0.03124,-0.0312 z"
     id="path66"
     inkscape:connector-curvature="0" />
  <path
     style="fill:#9b9b9b;stroke:none"
     d="m 5.2787419,5.49077 0.031235,0.0312 -0.031235,-0.0312 z"
     id="path68"
     inkscape:connector-curvature="0" />
  <path
     style="fill:#545454;stroke:none"
     d="m 11.244657,5.49077 0.03124,0.0312 -0.03124,-0.0312 z"
     id="path70"
     inkscape:connector-curvature="0" />
  <path
     style="fill:#9b9b9b;stroke:none"
     d="m 5.2475068,5.52201 0.031235,0.0312 -0.031235,-0.0312 z"
     id="path72"
     inkscape:connector-curvature="0" />
  <path
     style="fill:#565656;stroke:none"
     d="m 11.275893,5.52201 0.03124,0.0312 -0.03124,-0.0312 z"
     id="path74"
     inkscape:connector-curvature="0" />
  <path
     style="fill:#545454;stroke:none"
     d="m 11.307128,5.55324 0.03123,0.0312 -0.03123,-0.0312 z"
     id="path76"
     inkscape:connector-curvature="0" />
  <path
     style="fill:#4f4f4f;stroke:none"
     d="m 11.338363,5.58448 0.03124,0.0312 -0.03124,-0.0312 z"
     id="path78"
     inkscape:connector-curvature="0" />
  <path
     style="fill:#464646;stroke:none"
     d="m 11.369598,5.61571 0.03124,0.0312 -0.03124,-0.0312 z"
     id="path80"
     inkscape:connector-curvature="0" />
  <path
     style="fill:#393939;stroke:none"
     d="m 11.400833,5.64695 0.03123,0.0312 -0.03123,-0.0312 z"
     id="path82"
     inkscape:connector-curvature="0" />
  <path
     style="fill:#bdbdbd;stroke:none"
     d="m 11.463303,5.74065 0.03124,0.0312 -0.03124,-0.0312 z"
     id="path84"
     inkscape:connector-curvature="0" />
  <path
     style="fill:#a3a3a3;stroke:none"
     d="m 11.494539,5.77189 0.03124,0.0312 -0.03124,-0.0312 z"
     id="path86"
     inkscape:connector-curvature="0" />
  <path
     style="fill:#858585;stroke:none"
     d="m 11.525774,5.80312 0.03124,0.0312 -0.03124,-0.0312 z"
     id="path88"
     inkscape:connector-curvature="0" />
  <path
     style="fill:#646464;stroke:none"
     d="m 11.557009,5.83436 0.03123,0.0312 -0.03123,-0.0312 z"
     id="path90"
     inkscape:connector-curvature="0" />
  <path
     style="fill:#3e3e3e;stroke:none"
     d="m 11.588244,5.86559 0.03124,0.0312 -0.03124,-0.0312 z"
     id="path92"
     inkscape:connector-curvature="0" />
  <path
     style="fill:#b2b2b2;stroke:none"
     d="m 11.619479,5.92806 0.03124,0.0312 -0.03124,-0.0312 z"
     id="path94"
     inkscape:connector-curvature="0" />
  <path
     style="fill:#838383;stroke:none"
     d="m 11.650714,5.9593 0.03124,0.0312 -0.03124,-0.0312 z"
     id="path96"
     inkscape:connector-curvature="0" />
  <path
     style="fill:#515151;stroke:none"
     d="m 11.68195,5.99053 0.03123,0.0312 -0.03123,-0.0312 z"
     id="path98"
     inkscape:connector-curvature="0" />
  <path
     style="fill:#747474;stroke:none"
     d="m 11.74442,6.08424 0.03124,0.0312 -0.03124,-0.0312 z"
     id="path100"
     inkscape:connector-curvature="0" />
  <path
     style="fill:#343434;stroke:none"
     d="m 11.775655,6.11548 0.03123,0.0312 -0.03123,-0.0312 z"
     id="path102"
     inkscape:connector-curvature="0" />
  <path
     style="fill:#c4c4c4;stroke:none"
     d="m 11.775655,6.14671 0.03123,0.0312 -0.03123,-0.0312 z"
     id="path104"
     inkscape:connector-curvature="0" />
  <path
     style="fill:#7f7f7f;stroke:none"
     d="m 11.80689,6.17795 0.03124,0.0312 -0.03124,-0.0312 z"
     id="path106"
     inkscape:connector-curvature="0" />
  <path
     style="fill:#363636;stroke:none"
     d="m 11.838125,6.20918 0.03124,0.0312 -0.03124,-0.0312 z"
     id="path108"
     inkscape:connector-curvature="0" />
  <path
     style="fill:#c6c6c6;stroke:none"
     d="m 12.77518,6.20918 0.03123,0.0312 -0.03123,-0.0312 z"
     id="path110"
     inkscape:connector-curvature="0" />
  <path
     style="fill:#c0c0c0;stroke:none"
     d="m 11.838125,6.24042 0.03124,0.0312 -0.03124,-0.0312 z"
     id="path112"
     inkscape:connector-curvature="0" />
  <path
     style="fill:#717171;stroke:none"
     d="m 11.869361,6.27165 0.03124,0.0312 -0.03124,-0.0312 z"
     id="path114"
     inkscape:connector-curvature="0" />
  <path
     style="fill:#a3a3a3;stroke:none"
     d="m 11.900596,6.33412 0.03124,0.0312 -0.03124,-0.0312 z"
     id="path116"
     inkscape:connector-curvature="0" />
  <path
     style="fill:#4b4b4b;stroke:none"
     d="m 11.931831,6.36536 0.03123,0.0312 -0.03123,-0.0312 z"
     id="path118"
     inkscape:connector-curvature="0" />
  <path
     style="fill:#6d6d6d;stroke:none"
     d="m 11.963066,6.42783 0.03124,0.0312 -0.03124,-0.0312 z"
     id="path120"
     inkscape:connector-curvature="0" />
  <path
     style="fill:#878787;stroke:none"
     d="m 11.994301,6.4903 0.03124,0.0312 -0.03124,-0.0312 z"
     id="path122"
     inkscape:connector-curvature="0" />
  <path
     style="fill:#979797;stroke:none"
     d="m 12.025536,6.55277 0.03123,0.0312 -0.03123,-0.0312 z"
     id="path124"
     inkscape:connector-curvature="0" />
  <path
     style="fill:#9d9d9d;stroke:none"
     d="m 12.056771,6.61524 0.03124,0.0312 -0.03124,-0.0312 z"
     id="path126"
     inkscape:connector-curvature="0" />
  <path
     style="fill:#000000;stroke:none"
     d="m 1.0619954,6.64647 0,2.12399 1.1869361,0 c 0.1082704,0 0.3556372,0.046 0.4317011,-0.0501 0.057929,-0.0731 0.036792,-0.20687 0.036826,-0.29351 9.37e-5,-0.24114 0.030573,-0.47828 0.031235,-0.71841 l -0.6247032,0 0,-1.062 -1.0619954,0 m 12.806416,0 0,1.062 1.061995,0 0,-1.062 -1.061995,0 z"
     id="path128"
     inkscape:connector-curvature="0" />
  <path
     style="fill:#9a9a9a;stroke:none"
     d="m 12.088007,6.67771 0.03124,0.0312 -0.03124,-0.0312 z"
     id="path130"
     inkscape:connector-curvature="0" />
  <path
     style="fill:#8d8d8d;stroke:none"
     d="m 12.119242,6.74018 0.03124,0.0312 -0.03124,-0.0312 z"
     id="path132"
     inkscape:connector-curvature="0" />
  <path
     style="fill:#777777;stroke:none"
     d="m 12.150477,6.80265 0.03123,0.0312 -0.03123,-0.0312 z"
     id="path134"
     inkscape:connector-curvature="0" />
  <path
     style="fill:#585858;stroke:none"
     d="m 12.181712,6.86512 0.03124,0.0312 -0.03124,-0.0312 z"
     id="path136"
     inkscape:connector-curvature="0" />
  <path
     style="fill:#bbbbbb;stroke:none"
     d="m 12.181712,6.89635 0.03124,0.0312 -0.03124,-0.0312 z"
     id="path138"
     inkscape:connector-curvature="0" />
  <path
     style="fill:#2f2f2f;stroke:none"
     d="m 12.212947,6.92759 0.03124,0.0312 -0.03124,-0.0312 z"
     id="path140"
     inkscape:connector-curvature="0" />
  <path
     style="fill:#8e8e8e;stroke:none"
     d="m 12.212947,6.95882 0.03124,0.0312 -0.03124,-0.0312 z"
     id="path142"
     inkscape:connector-curvature="0" />
  <path
     style="fill:#585858;stroke:none"
     d="m 12.244182,7.02129 0.03124,0.0312 -0.03124,-0.0312 z"
     id="path144"
     inkscape:connector-curvature="0" />
  <path
     style="fill:#b1b1b1;stroke:none"
     d="m 12.244182,7.05253 0.03124,0.0312 -0.03124,-0.0312 z"
     id="path146"
     inkscape:connector-curvature="0" />
  <path
     style="fill:#6d6d6d;stroke:none"
     d="m 12.275418,7.115 0.03124,0.0312 -0.03124,-0.0312 z"
     id="path148"
     inkscape:connector-curvature="0" />
  <path
     style="fill:#9b9b9b;stroke:none"
     d="m 4.2479817,7.14624 0.031235,0.0312 -0.031235,-0.0312 z"
     id="path150"
     inkscape:connector-curvature="0" />
  <path
     style="fill:#c1c1c1;stroke:none"
     d="m 12.275418,7.14624 0.03124,0.0312 -0.03124,-0.0312 z"
     id="path152"
     inkscape:connector-curvature="0" />
  <path
     style="fill:#707070;stroke:none"
     d="m 12.306653,7.20871 0.03123,0.0312 -0.03123,-0.0312 z"
     id="path154"
     inkscape:connector-curvature="0" />
  <path
     style="fill:#606060;stroke:none"
     d="m 12.337888,7.30241 0.03124,0.0312 -0.03124,-0.0312 z"
     id="path156"
     inkscape:connector-curvature="0" />
  <path
     style="fill:#a8a8a8;stroke:none"
     d="m 12.337888,7.33365 0.03124,0.0312 -0.03124,-0.0312 z"
     id="path158"
     inkscape:connector-curvature="0" />
  <path
     style="fill:#3d3d3d;stroke:none"
     d="m 12.369123,7.39612 0.03124,0.0312 -0.03124,-0.0312 z"
     id="path160"
     inkscape:connector-curvature="0" />
  <path
     style="fill:#7f7f7f;stroke:none"
     d="m 12.369123,7.42735 0.03124,0.0312 -0.03124,-0.0312 z"
     id="path162"
     inkscape:connector-curvature="0" />
  <path
     style="fill:#c0c0c0;stroke:none"
     d="m 12.369123,7.45859 0.03124,0.0312 -0.03124,-0.0312 z"
     id="path164"
     inkscape:connector-curvature="0" />
  <path
     style="fill:#434343;stroke:none"
     d="m 12.400358,7.52106 0.03123,0.0312 -0.03123,-0.0312 z"
     id="path166"
     inkscape:connector-curvature="0" />
  <path
     style="fill:#7e7e7e;stroke:none"
     d="m 12.400358,7.55229 0.03123,0.0312 -0.03123,-0.0312 z"
     id="path168"
     inkscape:connector-curvature="0" />
  <path
     style="fill:#b7b7b7;stroke:none"
     d="m 12.400358,7.58353 0.03123,0.0312 -0.03123,-0.0312 z"
     id="path170"
     inkscape:connector-curvature="0" />
  <path
     style="fill:#5d5d5d;stroke:none"
     d="m 12.431593,7.67723 0.03124,0.0312 -0.03124,-0.0312 z"
     id="path172"
     inkscape:connector-curvature="0" />
  <path
     style="fill:#8e8e8e;stroke:none"
     d="m 12.431593,7.70847 0.03124,0.0312 -0.03124,-0.0312 z"
     id="path174"
     inkscape:connector-curvature="0" />
  <path
     style="fill:#000000;stroke:none"
     d="m 14.930406,7.70847 0,1.06199 -1.061995,0 0,1.062 1.061995,0 0,1.06199 1.061996,0 0,-3.18598 -1.061996,0 z"
     id="path176"
     inkscape:connector-curvature="0" />
  <path
     style="fill:#bebebe;stroke:none"
     d="m 12.431593,7.7397 0.03124,0.0312 -0.03124,-0.0312 z"
     id="path178"
     inkscape:connector-curvature="0" />
  <path
     style="fill:#6d6d6d;stroke:none"
     d="m 12.47323,7.85424 c -0.0017,0.002 -0.0035,0.0347 0.01043,0.0208 0.0017,-0.002 0.0035,-0.0347 -0.01043,-0.0208 z"
     id="path180"
     inkscape:connector-curvature="0" />
  <path
     style="fill:#b7b7b7;stroke:none"
     d="m 12.47323,7.91671 c -0.0017,0.002 -0.0035,0.0347 0.01043,0.0208 0.0017,-0.002 0.0035,-0.0347 -0.01043,-0.0208 z"
     id="path182"
     inkscape:connector-curvature="0" />
  <path
     style="fill:#525252;stroke:none"
     d="m 12.504465,8.07289 c -0.0017,0.002 -0.0035,0.0347 0.01043,0.0208 0.0017,-0.002 0.0035,-0.0347 -0.01043,-0.0208 z"
     id="path184"
     inkscape:connector-curvature="0" />
  <path
     style="fill:#818181;stroke:none"
     d="m 12.504465,8.13536 c -0.0017,0.002 -0.0035,0.0347 0.01043,0.0208 0.0017,-0.002 0.0035,-0.0347 -0.01043,-0.0208 z"
     id="path186"
     inkscape:connector-curvature="0" />
  <path
     style="fill:#a9a9a9;stroke:none"
     d="m 12.504465,8.19783 c -0.0017,0.002 -0.0035,0.0347 0.01043,0.0208 0.0017,-0.002 0.0035,-0.0347 -0.01043,-0.0208 z"
     id="path188"
     inkscape:connector-curvature="0" />
  <path
     style="fill:#c9c9c9;stroke:none"
     d="m 12.494064,8.23947 0,0.0937 c 0.02174,-0.0485 0.02174,-0.0452 0,-0.0937 z"
     id="path190"
     inkscape:connector-curvature="0" />
  <path
     style="fill:#d6d6d6;stroke:none"
     d="m 12.494064,8.67676 0,0.0937 c 0.02174,-0.0485 0.02174,-0.0452 0,-0.0937 z"
     id="path192"
     inkscape:connector-curvature="0" />
  <path
     style="fill:#000000;stroke:none"
     d="m 0,8.77046 0,1.062 1.0619954,0 0,-1.062 L 0,8.77046 z"
     id="path194"
     inkscape:connector-curvature="0" />
  <path
     style="fill:#a9a9a9;stroke:none"
     d="m 12.494064,8.77046 0,0.0937 c 0.02174,-0.0485 0.02174,-0.0452 0,-0.0937 z"
     id="path196"
     inkscape:connector-curvature="0" />
  <path
     style="fill:#6a6a6a;stroke:none"
     d="m 12.494064,8.86417 0,0.0937 c 0.02174,-0.0485 0.02174,-0.0452 0,-0.0937 z"
     id="path198"
     inkscape:connector-curvature="0" />
  <path
     style="fill:#1b1b1b;stroke:none"
     d="m 12.504465,8.97871 c -0.0017,0.002 -0.0035,0.0347 0.01043,0.0208 0.0017,-0.002 0.0035,-0.0347 -0.01043,-0.0208 z"
     id="path200"
     inkscape:connector-curvature="0" />
  <path
     style="fill:#939393;stroke:none"
     d="m 12.462829,9.08282 0,0.0937 c 0.02174,-0.0485 0.02174,-0.0452 0,-0.0937 z"
     id="path202"
     inkscape:connector-curvature="0" />
  <path
     style="fill:#1b1b1b;stroke:none"
     d="m 12.47323,9.19735 c -0.0017,0.002 -0.0035,0.0347 0.01043,0.0208 0.0017,-0.002 0.0035,-0.0347 -0.01043,-0.0208 z"
     id="path204"
     inkscape:connector-curvature="0" />
  <path
     style="fill:#bebebe;stroke:none"
     d="m 12.431593,9.27023 0.03124,0.0312 -0.03124,-0.0312 z"
     id="path206"
     inkscape:connector-curvature="0" />
  <path
     style="fill:#8e8e8e;stroke:none"
     d="m 12.431593,9.30146 0.03124,0.0312 -0.03124,-0.0312 z"
     id="path208"
     inkscape:connector-curvature="0" />
  <path
     style="fill:#5d5d5d;stroke:none"
     d="m 12.431593,9.3327 0.03124,0.0312 -0.03124,-0.0312 z"
     id="path210"
     inkscape:connector-curvature="0" />
  <path
     style="fill:#b7b7b7;stroke:none"
     d="m 12.400358,9.4264 0.03123,0.0312 -0.03123,-0.0312 z"
     id="path212"
     inkscape:connector-curvature="0" />
  <path
     style="fill:#7e7e7e;stroke:none"
     d="m 12.400358,9.45764 0.03123,0.0312 -0.03123,-0.0312 z"
     id="path214"
     inkscape:connector-curvature="0" />
  <path
     style="fill:#434343;stroke:none"
     d="m 12.400358,9.48887 0.03123,0.0312 -0.03123,-0.0312 z"
     id="path216"
     inkscape:connector-curvature="0" />
  <path
     style="fill:#c0c0c0;stroke:none"
     d="m 12.369123,9.55134 0.03124,0.0312 -0.03124,-0.0312 z"
     id="path218"
     inkscape:connector-curvature="0" />
  <path
     style="fill:#7f7f7f;stroke:none"
     d="m 12.369123,9.58258 0.03124,0.0312 -0.03124,-0.0312 z"
     id="path220"
     inkscape:connector-curvature="0" />
  <path
     style="fill:#3d3d3d;stroke:none"
     d="m 12.369123,9.61381 0.03124,0.0312 -0.03124,-0.0312 z"
     id="path222"
     inkscape:connector-curvature="0" />
  <path
     style="fill:#a8a8a8;stroke:none"
     d="m 12.337888,9.67628 0.03124,0.0312 -0.03124,-0.0312 z"
     id="path224"
     inkscape:connector-curvature="0" />
  <path
     style="fill:#606060;stroke:none"
     d="m 12.337888,9.70752 0.03124,0.0312 -0.03124,-0.0312 z"
     id="path226"
     inkscape:connector-curvature="0" />
  <path
     style="fill:#707070;stroke:none"
     d="m 12.306653,9.80122 0.03123,0.0312 -0.03123,-0.0312 z"
     id="path228"
     inkscape:connector-curvature="0" />
  <path
     style="fill:#000000;stroke:none"
     d="m 13.681,9.83246 c -0.07934,0.38338 -0.220739,0.73934 -0.384474,1.09323 -0.06728,0.14537 -0.242697,0.337 -0.245977,0.49976 -0.0021,0.10323 0.09633,0.18288 0.16208,0.24988 0.221176,0.22543 0.34671,0.28112 0.655782,0.28112 l 0,-2.12399 -0.187411,0 z"
     id="path230"
     inkscape:connector-curvature="0" />
  <path
     style="fill:#6d6d6d;stroke:none"
     d="m 12.275418,9.89493 0.03124,0.0312 -0.03124,-0.0312 z"
     id="path232"
     inkscape:connector-curvature="0" />
  <path
     style="fill:#b1b1b1;stroke:none"
     d="m 12.244182,9.9574 0.03124,0.0312 -0.03124,-0.0312 z"
     id="path234"
     inkscape:connector-curvature="0" />
  <path
     style="fill:#585858;stroke:none"
     d="m 12.244182,9.98864 0.03124,0.0312 -0.03124,-0.0312 z"
     id="path236"
     inkscape:connector-curvature="0" />
  <path
     style="fill:#8e8e8e;stroke:none"
     d="m 12.212947,10.05111 0.03124,0.0312 -0.03124,-0.0312 z"
     id="path238"
     inkscape:connector-curvature="0" />
  <path
     style="fill:#2f2f2f;stroke:none"
     d="m 12.212947,10.08234 0.03124,0.0312 -0.03124,-0.0312 z"
     id="path240"
     inkscape:connector-curvature="0" />
  <path
     style="fill:#bbbbbb;stroke:none"
     d="m 12.181712,10.11358 0.03124,0.0312 -0.03124,-0.0312 z"
     id="path242"
     inkscape:connector-curvature="0" />
  <path
     style="fill:#585858;stroke:none"
     d="m 12.181712,10.14481 0.03124,0.0312 -0.03124,-0.0312 z"
     id="path244"
     inkscape:connector-curvature="0" />
  <path
     style="fill:#777777;stroke:none"
     d="m 12.150477,10.20728 0.03123,0.0312 -0.03123,-0.0312 z"
     id="path246"
     inkscape:connector-curvature="0" />
  <path
     style="fill:#8d8d8d;stroke:none"
     d="m 12.119242,10.26975 0.03124,0.0312 -0.03124,-0.0312 z"
     id="path248"
     inkscape:connector-curvature="0" />
  <path
     style="fill:#9a9a9a;stroke:none"
     d="m 12.088007,10.33222 0.03124,0.0312 -0.03124,-0.0312 z"
     id="path250"
     inkscape:connector-curvature="0" />
  <path
     style="fill:#9d9d9d;stroke:none"
     d="m 12.056771,10.39469 0.03124,0.0312 -0.03124,-0.0312 z"
     id="path252"
     inkscape:connector-curvature="0" />
  <path
     style="fill:#979797;stroke:none"
     d="m 12.025536,10.45716 0.03123,0.0312 -0.03123,-0.0312 z"
     id="path254"
     inkscape:connector-curvature="0" />
  <path
     style="fill:#878787;stroke:none"
     d="m 11.994301,10.51963 0.03124,0.0312 -0.03124,-0.0312 z"
     id="path256"
     inkscape:connector-curvature="0" />
  <path
     style="fill:#6d6d6d;stroke:none"
     d="m 11.963066,10.5821 0.03124,0.0312 -0.03124,-0.0312 z"
     id="path258"
     inkscape:connector-curvature="0" />
  <path
     style="fill:#cbcbcb;stroke:none"
     d="m 11.931831,10.61334 0.03123,0.0312 -0.03123,-0.0312 z"
     id="path260"
     inkscape:connector-curvature="0" />
  <path
     style="fill:#4b4b4b;stroke:none"
     d="m 11.931831,10.64457 0.03123,0.0312 -0.03123,-0.0312 z"
     id="path262"
     inkscape:connector-curvature="0" />
  <path
     style="fill:#a3a3a3;stroke:none"
     d="m 11.900596,10.67581 0.03124,0.0312 -0.03124,-0.0312 z"
     id="path264"
     inkscape:connector-curvature="0" />
  <path
     style="fill:#717171;stroke:none"
     d="m 11.869361,10.73828 0.03124,0.0312 -0.03124,-0.0312 z"
     id="path266"
     inkscape:connector-curvature="0" />
  <path
     style="fill:#c0c0c0;stroke:none"
     d="m 11.838125,10.76951 0.03124,0.0312 -0.03124,-0.0312 z"
     id="path268"
     inkscape:connector-curvature="0" />
  <path
     style="fill:#c6c6c6;stroke:none"
     d="m 3.7482191,10.80075 0.031235,0.0312 -0.031235,-0.0312 z"
     id="path270"
     inkscape:connector-curvature="0" />
  <path
     style="fill:#363636;stroke:none"
     d="m 11.838125,10.80075 0.03124,0.0312 -0.03124,-0.0312 z"
     id="path272"
     inkscape:connector-curvature="0" />
  <path
     style="fill:#7f7f7f;stroke:none"
     d="m 11.80689,10.83198 0.03124,0.0312 -0.03124,-0.0312 z"
     id="path274"
     inkscape:connector-curvature="0" />
  <path
     style="fill:#343434;stroke:none"
     d="m 11.775655,10.89445 0.03123,0.0312 -0.03123,-0.0312 z"
     id="path276"
     inkscape:connector-curvature="0" />
  <path
     style="fill:#000000;stroke:none"
     d="m 0,10.92569 0,5.30998 5.3099771,0 0,-2.15523 0,-0.56223 c -3.13e-5,-0.0872 0.013806,-0.19316 -0.03211,-0.27175 C 5.1914391,13.09847 4.9794777,13.01042 4.8467595,12.90887 4.6378587,12.74901 4.462692,12.54498 4.2479815,12.39374 l 0,2.77993 -3.1859863,0 0,-3.18598 2.8111644,0 C 3.7914796,11.73174 3.5725836,11.50285 3.4362421,11.26928 3.3801131,11.17318 3.3335722,11.01986 3.2362747,10.9578 3.1614037,10.91 3.0517498,10.9257 2.9673399,10.9257 l -0.6247032,0 -2.3426369,0 z"
     id="path278"
     inkscape:connector-curvature="0" />
  <path
     style="fill:#747474;stroke:none"
     d="m 11.74442,10.92569 0.03124,0.0312 -0.03124,-0.0312 z"
     id="path280"
     inkscape:connector-curvature="0" />
  <path
     style="fill:#515151;stroke:none"
     d="m 11.68195,11.0194 0.03123,0.0312 -0.03123,-0.0312 z"
     id="path282"
     inkscape:connector-curvature="0" />
  <path
     style="fill:#838383;stroke:none"
     d="m 11.650714,11.05063 0.03124,0.0312 -0.03124,-0.0312 z"
     id="path284"
     inkscape:connector-curvature="0" />
  <path
     style="fill:#3e3e3e;stroke:none"
     d="m 11.588244,11.14434 0.03124,0.0312 -0.03124,-0.0312 z"
     id="path286"
     inkscape:connector-curvature="0" />
  <path
     style="fill:#757575;stroke:none"
     d="m 11.557009,11.17557 0.03123,0.0312 -0.03123,-0.0312 z"
     id="path288"
     inkscape:connector-curvature="0" />
  <path
     style="fill:#393939;stroke:none"
     d="m 11.400833,11.36298 0.03123,0.0312 -0.03123,-0.0312 z"
     id="path290"
     inkscape:connector-curvature="0" />
  <path
     style="fill:#464646;stroke:none"
     d="m 11.369598,11.39422 0.03124,0.0312 -0.03124,-0.0312 z"
     id="path292"
     inkscape:connector-curvature="0" />
  <path
     style="fill:#4f4f4f;stroke:none"
     d="m 11.338363,11.42545 0.03124,0.0312 -0.03124,-0.0312 z"
     id="path294"
     inkscape:connector-curvature="0" />
  <path
     style="fill:#545454;stroke:none"
     d="m 11.307128,11.45669 0.03123,0.0312 -0.03123,-0.0312 z"
     id="path296"
     inkscape:connector-curvature="0" />
  <path
     style="fill:#7c7c7c;stroke:none"
     d="m 11.275893,11.48792 0.03124,0.0312 -0.03124,-0.0312 z"
     id="path298"
     inkscape:connector-curvature="0" />
  <path
     style="fill:#7b7b7b;stroke:none"
     d="m 11.244657,11.51916 0.03124,0.0312 -0.03124,-0.0312 z"
     id="path300"
     inkscape:connector-curvature="0" />
  <path
     style="fill:#4e4e4e;stroke:none"
     d="m 11.213422,11.55039 0.03124,0.0312 -0.03124,-0.0312 z"
     id="path302"
     inkscape:connector-curvature="0" />
  <path
     style="fill:#444444;stroke:none"
     d="m 11.182187,11.58163 0.03123,0.0312 -0.03123,-0.0312 z"
     id="path304"
     inkscape:connector-curvature="0" />
  <path
     style="fill:#393939;stroke:none"
     d="m 3.6232785,11.61286 0.031235,0.0312 -0.031235,-0.0312 z"
     id="path306"
     inkscape:connector-curvature="0" />
  <path
     style="fill:#363636;stroke:none"
     d="m 11.150952,11.61286 0.03124,0.0312 -0.03124,-0.0312 z"
     id="path308"
     inkscape:connector-curvature="0" />
  <path
     style="fill:#4c4c4c;stroke:none"
     d="m 10.932306,11.80027 0.03123,0.0312 -0.03123,-0.0312 z"
     id="path310"
     inkscape:connector-curvature="0" />
  <path
     style="fill:#464646;stroke:none"
     d="m 10.807365,11.89398 0.03123,0.0312 -0.03123,-0.0312 z"
     id="path312"
     inkscape:connector-curvature="0" />
  <path
     style="fill:#000000;stroke:none"
     d="m 13.868411,11.95645 c 0,0.10848 -0.01924,0.24023 0.01883,0.34359 0.04617,0.12516 0.170637,0.22067 0.262281,0.31235 0.125566,0.1256 0.266405,0.32419 0.437292,0.38722 0.103358,0.0381 0.235139,0.0188 0.343587,0.0188 0,0.10848 -0.01924,0.24023 0.01884,0.34358 0.04617,0.12516 0.170638,0.22068 0.262282,0.31235 0.125565,0.1256 0.266404,0.32419 0.437292,0.38723 0.103357,0.0381 0.235138,0.0188 0.343587,0.0188 l 0,-2.12399 -2.123991,0 z"
     id="path314"
     inkscape:connector-curvature="0" />
  <path
     style="fill:#626262;stroke:none"
     d="m 10.526249,12.08139 0.03124,0.0312 -0.03124,-0.0312 z"
     id="path316"
     inkscape:connector-curvature="0" />
  <path
     style="fill:#939393;stroke:none"
     d="m 10.463778,12.11263 0.03124,0.0312 -0.03124,-0.0312 z"
     id="path318"
     inkscape:connector-curvature="0" />
  <path
     style="fill:#3a3a3a;stroke:none"
     d="m 10.432543,12.14386 0.03123,0.0312 -0.03123,-0.0312 z"
     id="path320"
     inkscape:connector-curvature="0" />
  <path
     style="fill:#5c5c5c;stroke:none"
     d="m 10.370073,12.1751 0.03124,0.0312 -0.03124,-0.0312 z"
     id="path322"
     inkscape:connector-curvature="0" />
  <path
     style="fill:#747474;stroke:none"
     d="m 10.307603,12.20633 0.03124,0.0312 -0.03124,-0.0312 z"
     id="path324"
     inkscape:connector-curvature="0" />
  <path
     style="fill:#868686;stroke:none"
     d="m 10.120192,12.30004 0.03124,0.0312 -0.03124,-0.0312 z"
     id="path326"
     inkscape:connector-curvature="0" />
  <path
     style="fill:#797979;stroke:none"
     d="m 10.057721,12.33127 0.03123,0.0312 -0.03123,-0.0312 z"
     id="path328"
     inkscape:connector-curvature="0" />
  <path
     style="fill:#636363;stroke:none"
     d="m 9.995251,12.36251 0.031235,0.0312 -0.031235,-0.0312 z"
     id="path330"
     inkscape:connector-curvature="0" />
  <path
     style="fill:#434343;stroke:none"
     d="m 9.9327807,12.39374 0.031235,0.0312 -0.031235,-0.0312 z"
     id="path332"
     inkscape:connector-curvature="0" />
  <path
     style="fill:#424242;stroke:none"
     d="m 9.7766049,12.45621 0.031235,0.0312 -0.031235,-0.0312 z"
     id="path334"
     inkscape:connector-curvature="0" />
  <path
     style="fill:#9f9f9f;stroke:none"
     d="m 9.6204291,12.51868 0.031235,0.0312 -0.031235,-0.0312 z"
     id="path336"
     inkscape:connector-curvature="0" />
  <path
     style="fill:#303030;stroke:none"
     d="m 9.2768423,12.61239 0.031235,0.0312 -0.031235,-0.0312 z"
     id="path338"
     inkscape:connector-curvature="0" />
  <path
     style="fill:#363636;stroke:none"
     d="m 8.9644907,12.67486 0.031235,0.0312 -0.031235,-0.0312 z"
     id="path340"
     inkscape:connector-curvature="0" />
  <path
     style="fill:#000000;stroke:none"
     d="m 1.8741096,12.7998 0,1.56176 1.5929931,0 0,-1.56176 -1.5929931,0 z"
     id="path342"
     inkscape:connector-curvature="0" />
  <path
     style="fill:#c6c6c6;stroke:none"
     d="m 5.9659154,13.01845 0.031235,0.0312 -0.031235,-0.0312 z"
     id="path344"
     inkscape:connector-curvature="0" />
  <path
     style="fill:#000000;stroke:none"
     d="m 10.619954,14.11168 1.061996,0 c 0,-0.30036 -0.02733,-0.43736 -0.249882,-0.65579 -0.06759,-0.0663 -0.145743,-0.16151 -0.249881,-0.1577 -0.108605,0.004 -0.220395,0.0979 -0.312352,0.1479 -0.07331,0.0399 -0.170825,0.0732 -0.217771,0.14677 -0.07999,0.12541 -0.03211,0.37479 -0.03211,0.51882 m -4.2479815,0 0,1.06199 1.0619954,0 0,-1.06199 -1.0619954,0 m 3.1859862,0 0,1.06199 -2.1239908,0 0,1.062 5.3099771,0 0,-1.062 -2.123991,0 0,-1.06199 -1.0619953,0 m 3.1859863,0.68717 0,0.37482 0.374822,0 C 13.016316,15.02824 12.889376,14.9013 12.743945,14.79885 z"
     id="path346"
     inkscape:connector-curvature="0" />
  <path
     style="fill:#ffffff;stroke:none"
     d="m 15.961166,15.7359 c -0.06784,0.22843 -0.240104,0.40069 -0.468527,0.46853 0.147555,0.0619 0.340776,0.0312 0.499763,0.0312 0,-0.15899 0.03067,-0.35221 -0.03124,-0.49977 z"
     id="path348"
     inkscape:connector-curvature="0" />
</svg>
