<?xml version="1.0" encoding="UTF-8" standalone="no"?>
<svg
   xmlns:dc="http://purl.org/dc/elements/1.1/"
   xmlns:cc="http://creativecommons.org/ns#"
   xmlns:rdf="http://www.w3.org/1999/02/22-rdf-syntax-ns#"
   xmlns:svg="http://www.w3.org/2000/svg"
   xmlns="http://www.w3.org/2000/svg"
   xmlns:sodipodi="http://sodipodi.sourceforge.net/DTD/sodipodi-0.dtd"
   xmlns:inkscape="http://www.inkscape.org/namespaces/inkscape"
   width="16"
   height="16"
   id="svg2"
   version="1.1"
   inkscape:version="0.48.4 r9939"
   sodipodi:docname="gr_gray_small.svg">
  <metadata
     id="metadata38">
    <rdf:RDF>
      <cc:Work
         rdf:about="">
        <dc:format>image/svg+xml</dc:format>
        <dc:type
           rdf:resource="http://purl.org/dc/dcmitype/StillImage" />
      </cc:Work>
    </rdf:RDF>
  </metadata>
  <defs
     id="defs36" />
  <sodipodi:namedview
     pagecolor="#ffffff"
     bordercolor="#666666"
     borderopacity="1"
     objecttolerance="10"
     gridtolerance="10"
     guidetolerance="10"
     inkscape:pageopacity="0"
     inkscape:pageshadow="2"
     inkscape:window-width="1215"
     inkscape:window-height="776"
     id="namedview34"
     showgrid="false"
     inkscape:zoom="14.75"
     inkscape:cx="33.442542"
     inkscape:cy="7.5506836"
     inkscape:window-x="65"
     inkscape:window-y="24"
     inkscape:window-maximized="1"
     inkscape:current-layer="svg2" />
  <path
     style="fill:#787878;stroke:none"
     d="m 0,0.24327 0,5.30997 2.4675776,0 0.7184086,0 c 0.1050751,0 0.2410105,0.0216 0.3403383,-0.0188 C 3.6334611,5.49084 3.6891534,5.36099 3.7530606,5.27216 3.8861223,5.08728 4.0292418,4.90589 4.1867295,4.74116 4.4015649,4.51648 4.6261457,4.30271 4.8726849,4.11293 4.992378,4.02083 5.2008414,3.92948 5.2778673,3.79754 c 0.050507,-0.0865 0.03211,-0.2099 0.03211,-0.30579 l 0,-0.68717 0,-2.56128 -5.3099771,0 z"
     id="path4"
     inkscape:connector-curvature="0" />
  <path
     style="fill:#ffffff;stroke:none"
     d="m 5.3099771,0.24327 0,2.53004 0,0.68718 c 0,0.098 0.017179,0.21983 -0.03211,0.3091 C 5.2021841,3.90665 4.9950328,3.99639 4.8726847,4.08925 4.6260206,4.27651 4.4006277,4.48619 4.1867293,4.70989 4.020652,4.88359 3.8688179,5.07556 3.7306648,5.27213 3.6649458,5.36563 3.610097,5.49021 3.4969945,5.53441 3.3958238,5.57391 3.2613253,5.55321 3.1547509,5.55321 l -0.7184087,0 -2.4363424,0 0,3.21722 1.0619954,0 0,1.062 -1.0619954,0 0,1.09323 2.3114018,0 0.6247032,0 c 0.087371,3e-5 0.1958132,-0.0143 0.2744633,0.0321 0.1045441,0.0617 0.14996,0.21106 0.2074015,0.31148 0.1402771,0.24516 0.3345598,0.46453 0.45519,0.71841 l -2.8111644,0 0,3.18598 3.1859863,0 0,-2.77993 c 0.1963442,0.19622 0.4025587,0.3935 0.6275143,0.55711 0.1268148,0.0923 0.3235338,0.18213 0.4023713,0.32291 0.045229,0.0807 0.032079,0.18676 0.03211,0.27568 l 0,0.56224 0,2.12399 2.1239908,0 0,-1.062 2.1239908,0 0,-1.06199 1.0619953,0 0,1.06199 2.123991,0 0,1.062 2.342637,0 c -0.465748,-0.2636 -0.808741,-0.65257 -1.186936,-1.03076 L 12.337888,13.64311 11.619479,12.9247 c -0.08483,-0.0848 -0.191877,-0.23761 -0.312351,-0.27078 -0.14262,-0.0393 -0.380101,0.18894 -0.499763,0.25744 -0.405651,0.23217 -0.8578111,0.41977 -1.3118766,0.53262 -1.5441101,0.38376 -3.24652,-0.008 -4.4654096,-1.03354 C 3.1343858,10.81495 2.6613793,8.01731 3.942002,5.89679 4.1955066,5.47702 4.5347204,5.08477 4.90392,4.76352 5.2180208,4.49021 5.5302162,4.23602 5.9034451,4.04629 6.3574169,3.81553 6.83494,3.62378 7.3402624,3.54556 7.8110388,3.47276 8.2988382,3.41066 8.7770798,3.46936 9.7776981,3.59227 10.74908,3.97793 11.524556,4.63062 c 1.25253,1.05416 1.965972,2.7213 1.807547,4.35843 -0.06088,0.62904 -0.251443,1.24806 -0.533403,1.81164 -0.08608,0.17207 -0.178634,0.33893 -0.284458,0.49976 -0.04651,0.0707 -0.128877,0.15786 -0.103545,0.24988 0.03017,0.10961 0.162548,0.20409 0.239543,0.28112 l 0.530997,0.531 1.99905,1.99905 c 0.267342,0.26734 0.709913,0.57632 0.780879,0.96829 0.05526,-0.13166 0.03124,-0.29564 0.03124,-0.43729 l 0,-0.81212 c -0.09939,0 -0.217553,0.0161 -0.312352,-0.0188 -0.170919,-0.063 -0.311696,-0.26163 -0.437292,-0.38723 -0.100328,-0.10032 -0.24301,-0.20662 -0.293517,-0.34358 -0.03495,-0.0948 -0.01884,-0.21296 -0.01884,-0.31235 -0.09939,0 -0.217553,0.0161 -0.312351,-0.0188 -0.170919,-0.063 -0.311696,-0.26162 -0.437293,-0.38722 -0.100327,-0.10033 -0.243009,-0.20662 -0.293516,-0.34359 -0.03495,-0.0948 -0.01883,-0.21296 -0.01883,-0.31235 l 2.123991,0 0,-1.062 -1.061996,0 0,-1.06199 -1.061995,0 0,-1.062 1.061995,0 0,-1.06199 1.061996,0 0,-2.15523 -2.123991,0 -0.562233,0 c -0.08893,-3e-5 -0.19497,0.0131 -0.275682,-0.0321 C 12.889692,5.44225 12.798548,5.24453 12.703968,5.11878 12.536922,4.89661 12.346544,4.68786 12.150481,4.49127 l 2.779929,0 0,-3.18599 -3.185986,0 0,2.8424 C 11.523872,3.9777 11.294919,3.82571 11.05725,3.68109 10.950208,3.61589 10.780975,3.56649 10.714538,3.45385 10.668128,3.37525 10.682458,3.26676 10.682428,3.17939 l 0,-0.6247 0,-2.3114 -5.3724469,0 z"
     id="path6"
     inkscape:connector-curvature="0" />
  <path
     style="fill:#787878;stroke:none"
     d="m 10.682424,0.24327 0,2.34263 0,0.62471 c 3.2e-5,0.0844 -0.01565,0.19406 0.03211,0.26893 0.06238,0.0978 0.215773,0.14328 0.311477,0.20153 0.243728,0.1483 0.46984,0.32806 0.718409,0.46659 l 0,-2.8424 3.185986,0 0,3.18599 -2.779929,0 c 0.15755,0.22386 0.36795,0.40765 0.531779,0.62751 0.09289,0.12469 0.183694,0.32219 0.320941,0.40237 0.07859,0.0459 0.184537,0.0321 0.271746,0.0321 l 0.562233,0 2.155226,0 0,-5.30997 -5.309978,0 m -3.2484561,0.0312 0,2.12399 -1.0619954,0 0,0.87459 C 6.7287717,3.19924 7.065393,3.03902 7.4339679,3.02315 l 0,-0.6247 1.0619954,0 c 0,0.1302 -0.052225,0.40562 0.03211,0.51215 0.051913,0.0656 0.1744796,0.0534 0.2490067,0.0633 0.2585021,0.0345 0.521471,0.091 0.7808789,0.11168 l 0,-0.68717 -1.0619954,0 0,-1.06199 1.0619954,0 0,-1.062 -2.1239908,0 z"
     id="path8"
     inkscape:connector-curvature="0" />
  <path
     style="fill:#ffffff;stroke:none"
     d="m 1.0619954,1.30526 0,3.18599 3.1859863,0 0,-3.18599 -3.1859863,0 z"
     id="path10"
     inkscape:connector-curvature="0" />
  <path
     style="fill:#787878;stroke:none"
     d="m 1.8741096,2.11737 0,1.56176 1.5929931,0 0,-1.56176 -1.5929931,0 m 10.6824244,0 0,1.56176 1.592993,0 0,-1.56176 -1.592993,0 M 7.7150843,3.47386 C 6.2261043,3.68707 4.8879588,4.43871 4.040424,5.70942 2.4556083,8.08551 3.2345569,11.57263 5.7785045,12.94589 6.9058126,13.55441 8.2119733,13.74357 9.4642533,13.45924 9.939996,13.35122 10.415957,13.15329 10.8386,12.9114 c 0.12391,-0.0709 0.35252,-0.29439 0.499763,-0.21714 0.107386,0.0563 0.196375,0.17697 0.281116,0.26172 l 0.593468,0.59346 1.87411,1.87411 c 0.386691,0.38669 0.78444,0.93918 1.405582,0.79559 0.695951,-0.16089 0.558891,-0.99862 0.186193,-1.38906 -0.761638,-0.7979 -1.561415,-1.56263 -2.341419,-2.34263 L 12.71271,11.86274 c -0.0859,-0.0859 -0.238574,-0.19237 -0.2759,-0.31235 -0.02846,-0.0914 0.05238,-0.17879 0.09805,-0.24988 0.109979,-0.17126 0.204184,-0.34908 0.295078,-0.531 0.272808,-0.54605 0.479335,-1.19768 0.50626,-1.81164 C 13.381738,7.91937 13.205541,6.90248 12.685257,5.99053 11.72134,4.30102 9.6736255,3.19342 7.7150873,3.47386 z"
     id="path12"
     inkscape:connector-curvature="0" />
  <path
     style="fill:#ababab;stroke:none"
     d="m 10.557484,3.99148 0.03123,0.0312 -0.03123,-0.0312 z"
     id="path14"
     inkscape:connector-curvature="0" />
  <path
     style="fill:#ffffff;stroke:none"
     d="M 8.3710227,4.29115 C 7.6269075,4.31805 6.9450752,4.43346 6.278267,4.78764 5.7960586,5.0438 5.3605156,5.37995 5.0121186,5.80312 c -1.3470787,1.6362 -1.2592454,4.1237 0.2053712,5.65357 0.9219057,0.96295 2.164534,1.33689 3.4658845,1.27942 0.4855818,-0.0215 0.9699142,-0.19419 1.4055817,-0.39522 0.55886,-0.25788 1.06059,-0.62551 1.45356,-1.10285 1.443501,-1.75329 1.23913,-4.52213 -0.54774,-5.96591 C 10.623702,4.9723 10.225985,4.72704 9.7766049,4.56324 9.3345961,4.40213 8.8468591,4.27398 8.3710227,4.29115 z"
     id="path16"
     inkscape:connector-curvature="0" />
  <path
     style="fill:#ababab;stroke:none"
     d="m 12.77518,6.20918 0.03123,0.0312 -0.03123,-0.0312 z"
     id="path18"
     inkscape:connector-curvature="0" />
  <path
     style="fill:#787878;stroke:none"
     d="m 1.0619954,6.64647 0,2.12399 1.1869361,0 c 0.1082704,0 0.3556372,0.046 0.4317011,-0.0501 0.057929,-0.0731 0.036792,-0.20687 0.036826,-0.29351 9.37e-5,-0.24114 0.030573,-0.47828 0.031235,-0.71841 l -0.6247032,0 0,-1.062 -1.0619954,0 m 12.806416,0 0,1.062 1.061995,0 0,-1.062 -1.061995,0 m 1.061995,1.062 0,1.06199 -1.061995,0 0,1.062 1.061995,0 0,1.06199 1.061996,0 0,-3.18598 -1.061996,0 M 0,8.77046 l 0,1.062 1.0619954,0 0,-1.062 L 0,8.77046 m 13.681,1.062 c -0.07934,0.38338 -0.220739,0.73934 -0.384474,1.09323 -0.06728,0.14537 -0.242697,0.337 -0.245977,0.49976 -0.0021,0.10323 0.09633,0.18288 0.16208,0.24988 0.221176,0.22543 0.34671,0.28112 0.655782,0.28112 l 0,-2.12399 -0.187411,0 z"
     id="path20"
     inkscape:connector-curvature="0" />
  <path
     style="fill:#a4a4a4;stroke:none"
     d="m 12.275418,9.86369 0.03124,0.0312 -0.03124,-0.0312 z"
     id="path22"
     inkscape:connector-curvature="0" />
  <path
     style="fill:#ababab;stroke:none"
     d="m 3.7482191,10.80075 0.031235,0.0312 -0.031235,-0.0312 z"
     id="path24"
     inkscape:connector-curvature="0" />
  <path
     style="fill:#787878;stroke:none"
     d="m 0,10.92569 0,5.30998 5.3099771,0 0,-2.15523 0,-0.56223 c -3.13e-5,-0.0872 0.013806,-0.19316 -0.03211,-0.27175 C 5.1914391,13.09847 4.9794777,13.01042 4.8467595,12.90887 4.6378587,12.74901 4.462692,12.54498 4.2479815,12.39374 l 0,2.77993 -3.1859863,0 0,-3.18598 2.8111644,0 C 3.7902926,11.72812 3.5738018,11.50491 3.4362421,11.26928 3.3801131,11.17318 3.3335722,11.01986 3.2362747,10.9578 3.1614037,10.91 3.0517498,10.9257 2.9673399,10.9257 l -0.6247032,0 -2.3426369,0 m 13.8684112,1.03076 c 0,0.10848 -0.01924,0.24023 0.01883,0.34359 0.04617,0.12516 0.170637,0.22067 0.262281,0.31235 0.125566,0.1256 0.266405,0.32419 0.437292,0.38722 0.103358,0.0381 0.235139,0.0188 0.343587,0.0188 0,0.10848 -0.01924,0.24023 0.01884,0.34358 0.04617,0.12516 0.170638,0.22068 0.262282,0.31235 0.125565,0.1256 0.266404,0.32419 0.437292,0.38723 0.103357,0.0381 0.235138,0.0188 0.343587,0.0188 l 0,-2.12399 -2.123991,0 m -11.9943016,0.84335 0,1.56176 1.5929931,0 0,-1.56176 -1.5929931,0 z"
     id="path26"
     inkscape:connector-curvature="0" />
  <path
     style="fill:#ababab;stroke:none"
     d="m 5.9659154,13.01845 0.031235,0.0312 -0.031235,-0.0312 z"
     id="path28"
     inkscape:connector-curvature="0" />
  <path
     style="fill:#787878;stroke:none"
     d="m 10.619954,14.11168 1.061996,0 c 0,-0.30036 -0.02733,-0.43736 -0.249882,-0.65579 -0.06759,-0.0663 -0.145743,-0.16151 -0.249881,-0.1577 -0.108605,0.004 -0.220395,0.0979 -0.312352,0.1479 -0.07331,0.0399 -0.170825,0.0732 -0.217771,0.14677 -0.07999,0.12541 -0.03211,0.37479 -0.03211,0.51882 m -4.2479815,0 0,1.06199 1.0619954,0 0,-1.06199 -1.0619954,0 m 3.1859862,0 0,1.06199 -2.1239908,0 0,1.062 5.3099771,0 0,-1.062 -2.123991,0 0,-1.06199 -1.0619953,0 m 3.1859863,0.68717 0,0.37482 0.374822,0 C 13.016316,15.02824 12.889376,14.9013 12.743945,14.79885 z"
     id="path30"
     inkscape:connector-curvature="0" />
  <path
     style="fill:#ffffff;stroke:none"
     d="m 15.961166,15.7359 c -0.06784,0.22843 -0.240104,0.40069 -0.468527,0.46853 0.147555,0.0619 0.340776,0.0312 0.499763,0.0312 0,-0.15899 0.03067,-0.35221 -0.03124,-0.49977 z"
     id="path32"
     inkscape:connector-curvature="0" />
</svg>
